<?xml version="1.0" standalone="no"?>
<!DOCTYPE svg PUBLIC "-//W3C//DTD SVG 20010904//EN"
 "http://www.w3.org/TR/2001/REC-SVG-20010904/DTD/svg10.dtd">
<svg version="1.0" xmlns="http://www.w3.org/2000/svg"
 width="752.000000pt" height="752.000000pt" viewBox="0 0 752.000000 752.000000"
 preserveAspectRatio="xMidYMid meet">

<g transform="translate(0.000000,752.000000) scale(0.100000,-0.100000)"
fill="#000000" stroke="none">
<path d="M0 3760 l0 -3760 3760 0 3760 0 0 3760 0 3760 -3760 0 -3760 0 0
-3760z m2000 1439 c95 -165 171 -301 169 -303 -2 -1 -75 -39 -161 -84 l-157
-81 -34 57 c-31 53 -81 139 -137 237 -13 22 -70 120 -126 219 -57 98 -104 181
-104 185 0 3 -9 17 -20 31 -11 14 -20 28 -20 33 0 4 94 7 209 7 l209 0 172
-301z m4100 292 c0 -5 -58 -110 -128 -233 -71 -123 -191 -331 -267 -463 -76
-132 -196 -341 -267 -465 -71 -124 -131 -226 -132 -227 -1 -2 -74 34 -162 78
-176 90 -174 88 -129 160 26 40 45 73 93 159 14 25 33 56 42 70 10 14 118 198
240 410 122 212 239 415 261 453 l40 67 204 0 c118 0 205 -4 205 -9z m-3648
-1067 c48 -82 87 -152 87 -156 1 -9 133 -239 203 -353 30 -49 75 -126 99 -170
23 -44 47 -81 51 -83 4 -2 8 -11 8 -21 0 -12 -27 -29 -87 -55 -49 -22 -121
-57 -162 -78 -40 -22 -77 -36 -81 -31 -4 4 -90 152 -190 328 -101 176 -221
385 -266 465 -46 79 -80 148 -76 151 16 16 308 158 317 155 6 -1 49 -70 97
-152z m2525 -561 c74 -36 136 -70 139 -75 3 -4 -50 -104 -117 -221 -139 -243
-366 -637 -447 -777 -30 -52 -134 -232 -230 -400 -96 -168 -233 -406 -305
-530 -71 -124 -157 -273 -191 -332 -33 -60 -63 -108 -66 -108 -3 0 -39 57 -80
128 -40 70 -88 152 -105 182 -18 30 -50 87 -72 125 -23 39 -72 124 -110 190
-39 66 -82 140 -95 165 -14 25 -139 243 -278 484 -139 242 -254 445 -257 452
-7 19 272 154 315 154 12 -1 69 -91 175 -278 87 -152 192 -335 233 -407 42
-71 119 -205 171 -297 53 -93 99 -168 102 -168 3 0 18 22 32 48 15 26 138 241
274 477 136 237 259 450 273 475 23 42 116 202 202 350 21 36 60 106 87 155
26 50 73 134 103 188 66 118 53 117 247 20z"/>
</g>
</svg>
